<svg width="48" height="48" viewBox="0 0 48 48" fill="none" xmlns="http://www.w3.org/2000/svg">
<rect width="48" height="48" rx="9" fill="white"/>
<g clip-path="url(#clip0_8433_209)">
<path d="M39.75 13.1813V37.8188C39.75 38.8813 38.8875 39.75 37.825 39.75H10.175C9.1125 39.75 8.25 38.8875 8.25 37.8188V13.1813H39.75Z" fill="#D3D3D3"/>
<path d="M39.7501 13.1813V37.8188C39.7501 38.8813 38.8876 39.75 37.8251 39.75H36.0376C37.1001 39.75 37.9688 38.8875 37.9688 37.8188V13.1813H39.7501Z" fill="#C3C3C3"/>
<path d="M39.75 13.1813V10.1813C39.75 9.11876 38.8875 8.25626 37.825 8.25626H10.1813C9.1125 8.25001 8.25 9.11251 8.25 10.1813V13.1813H39.75Z" fill="#D3D9D9"/>
<path d="M11.9688 8.25C10.9062 8.25 10.0375 9.1125 10.0375 10.175V13.1813H8.25V10.175C8.25 9.1125 9.1125 8.25 10.175 8.25H11.9688Z" fill="#C3C3C3"/>
<path d="M39.75 10.175V13.1813H37.9625V10.175C37.9625 9.1125 37.1 8.25 36.0312 8.25H37.825C38.8875 8.25 39.75 9.1125 39.75 10.175Z" fill="#A8B2B4"/>
<path d="M40 10.175C40 8.975 39.025 8 37.825 8H10.1813C8.975 8 8 8.975 8 10.175V37.8188C8 39.0188 8.975 40 10.175 40H37.8188C39.0188 40 39.9937 39.025 39.9937 37.8188L40 10.175ZM8.5 10.175C8.5 9.25 9.25625 8.5 10.1813 8.5H37.825C38.75 8.5 39.5 9.25 39.5 10.175V12.925H8.5V10.175ZM39.5 37.8188C39.5 38.7438 38.75 39.5 37.825 39.5H10.175C9.25 39.5 8.5 38.7438 8.5 37.8188V13.4313H39.5V37.8188Z" fill="#333333"/>
<path d="M11.1626 11.5938C11.6458 11.5938 12.0376 11.202 12.0376 10.7188C12.0376 10.2355 11.6458 9.84375 11.1626 9.84375C10.6793 9.84375 10.2876 10.2355 10.2876 10.7188C10.2876 11.202 10.6793 11.5938 11.1626 11.5938Z" fill="#FC8A8A"/>
<path d="M14.2812 11.5938C14.7645 11.5938 15.1562 11.202 15.1562 10.7188C15.1562 10.2355 14.7645 9.84375 14.2812 9.84375C13.798 9.84375 13.4062 10.2355 13.4062 10.7188C13.4062 11.202 13.798 11.5938 14.2812 11.5938Z" fill="#FEDD8E"/>
<path d="M17.394 11.5938C17.8773 11.5938 18.269 11.202 18.269 10.7188C18.269 10.2355 17.8773 9.84375 17.394 9.84375C16.9108 9.84375 16.519 10.2355 16.519 10.7188C16.519 11.202 16.9108 11.5938 17.394 11.5938Z" fill="#7BDE9E"/>
<path d="M12.0374 10.7125C12.0374 11.2 11.6437 11.5875 11.1624 11.5875C10.7874 11.5875 10.4624 11.35 10.3374 11.0062C10.4312 11.0375 10.5312 11.0562 10.6374 11.0562C11.1187 11.0562 11.5124 10.6687 11.5124 10.1812C11.5124 10.075 11.4937 9.97498 11.4624 9.88123C11.7937 10.0187 12.0374 10.3375 12.0374 10.7125Z" fill="#F96363"/>
<path d="M15.1497 10.7125C15.1497 11.2 14.756 11.5875 14.2747 11.5875C13.8997 11.5875 13.5747 11.35 13.4497 11.0062C13.5435 11.0375 13.6435 11.0562 13.7497 11.0562C14.231 11.0562 14.6247 10.6687 14.6247 10.1812C14.6247 10.075 14.606 9.97498 14.5747 9.88123C14.9122 10.0187 15.1497 10.3375 15.1497 10.7125Z" fill="#FDD267"/>
<path d="M18.2688 10.7125C18.2688 11.2 17.8751 11.5875 17.3938 11.5875C17.0188 11.5875 16.6938 11.35 16.5688 11.0062C16.6626 11.0375 16.7626 11.0562 16.8626 11.0562C17.3438 11.0562 17.7376 10.6687 17.7376 10.1812C17.7376 10.075 17.7188 9.97498 17.6813 9.88123C18.0251 10.0187 18.2688 10.3375 18.2688 10.7125Z" fill="#50D27E"/>
<path d="M11.1626 11.8438C10.5438 11.8438 10.0376 11.3375 10.0376 10.7188C10.0376 10.1 10.5438 9.59375 11.1626 9.59375C11.7813 9.59375 12.2876 10.1 12.2876 10.7188C12.2876 11.3375 11.7813 11.8438 11.1626 11.8438ZM11.1626 10.0938C10.8188 10.0938 10.5376 10.375 10.5376 10.7188C10.5376 11.0625 10.8188 11.3438 11.1626 11.3438C11.5063 11.3438 11.7876 11.0625 11.7876 10.7188C11.7876 10.375 11.5063 10.0938 11.1626 10.0938Z" fill="#333333"/>
<path d="M14.2812 11.8438C13.6625 11.8438 13.1562 11.3375 13.1562 10.7188C13.1562 10.1 13.6625 9.59375 14.2812 9.59375C14.9 9.59375 15.4062 10.1 15.4062 10.7188C15.4062 11.3375 14.9 11.8438 14.2812 11.8438ZM14.2812 10.0938C13.9375 10.0938 13.6562 10.375 13.6562 10.7188C13.6562 11.0625 13.9375 11.3438 14.2812 11.3438C14.625 11.3438 14.9062 11.0625 14.9062 10.7188C14.9062 10.375 14.625 10.0938 14.2812 10.0938Z" fill="#333333"/>
<path d="M17.394 11.8438C16.7753 11.8438 16.269 11.3375 16.269 10.7188C16.269 10.1 16.7753 9.59375 17.394 9.59375C18.0128 9.59375 18.519 10.1 18.519 10.7188C18.519 11.3375 18.0128 11.8438 17.394 11.8438ZM17.394 10.0938C17.0503 10.0938 16.769 10.375 16.769 10.7188C16.769 11.0625 17.0503 11.3438 17.394 11.3438C17.7378 11.3438 18.019 11.0625 18.019 10.7188C18.019 10.375 17.7378 10.0938 17.394 10.0938Z" fill="#333333"/>
<path d="M37.7127 10.7125C37.7127 11.2 37.3189 11.5875 36.8377 11.5875H22.3564C21.8752 11.5875 21.4814 11.2 21.4814 10.7125C21.4814 10.2313 21.8752 9.83752 22.3564 9.83752H36.8377C37.3189 9.83752 37.7127 10.2313 37.7127 10.7125Z" fill="#D3D3D3"/>
<path d="M37.7127 10.7126C37.7127 11.2001 37.3189 11.5876 36.8377 11.5876H22.3564C21.8877 11.5876 21.5064 11.2188 21.4814 10.7563C21.6064 10.8251 21.7502 10.8626 21.9002 10.8626H36.3814C36.8627 10.8626 37.2564 10.4751 37.2564 9.98757V9.95007C37.5252 10.0938 37.7127 10.3876 37.7127 10.7126Z" fill="#C3C3C3"/>
<path d="M36.8377 11.8375H22.3564C21.7377 11.8375 21.2314 11.3313 21.2314 10.7125C21.2314 10.0938 21.7377 9.58752 22.3564 9.58752H36.8377C37.4564 9.58752 37.9627 10.0938 37.9627 10.7125C37.9627 11.3313 37.4564 11.8375 36.8377 11.8375ZM22.3564 10.0875C22.0127 10.0875 21.7314 10.3688 21.7314 10.7125C21.7314 11.0563 22.0127 11.3375 22.3564 11.3375H36.8377C37.1814 11.3375 37.4627 11.0563 37.4627 10.7125C37.4627 10.3688 37.1814 10.0875 36.8377 10.0875H22.3564Z" fill="#333333"/>
<path d="M36.4749 15.7C36.4749 15.7 36.4749 18.3312 36.4749 21.8375H11.5249V15.7H36.4749Z" fill="#FB8A8A"/>
<path d="M36.4749 15.7C36.4749 15.7 36.4749 16.2 36.4749 17.0562H11.5249V15.7H36.4749Z" fill="#FCB1B1"/>
<path d="M36.4749 20.4812H11.5249V21.8312H36.4749V20.4812Z" fill="#F96363"/>
<path d="M36.4749 22.0812H11.5249C11.3874 22.0812 11.2749 21.9687 11.2749 21.8312V15.6937C11.2749 15.5562 11.3874 15.4437 11.5249 15.4437H36.4749C36.6124 15.4437 36.7249 15.5562 36.7249 15.6937V21.8312C36.7249 21.975 36.6124 22.0812 36.4749 22.0812ZM11.7749 21.5812H36.2249V15.9437H11.7749V21.5812Z" fill="#333333"/>
<path d="M36.4749 24.6H11.5249C11.3874 24.6 11.2749 24.4875 11.2749 24.35C11.2749 24.2125 11.3874 24.1 11.5249 24.1H36.4749C36.6124 24.1 36.7249 24.2125 36.7249 24.35C36.7249 24.4875 36.6124 24.6 36.4749 24.6Z" fill="#333333"/>
<path d="M36.4749 37.4812H11.5249C11.3874 37.4812 11.2749 37.3687 11.2749 37.2312C11.2749 37.0937 11.3874 36.9812 11.5249 36.9812H36.4749C36.6124 36.9812 36.7249 37.0937 36.7249 37.2312C36.7249 37.3687 36.6124 37.4812 36.4749 37.4812Z" fill="#333333"/>
<path d="M36.4749 34.9625H24.8062C24.6687 34.9625 24.5562 34.85 24.5562 34.7125C24.5562 34.575 24.6687 34.4625 24.8062 34.4625H36.4749C36.6124 34.4625 36.7249 34.575 36.7249 34.7125C36.7249 34.85 36.6124 34.9625 36.4749 34.9625Z" fill="#333333"/>
<path d="M36.4749 32.35H24.8062C24.6687 32.35 24.5562 32.2375 24.5562 32.1C24.5562 31.9625 24.6687 31.85 24.8062 31.85H36.4749C36.6124 31.85 36.7249 31.9625 36.7249 32.1C36.7249 32.2375 36.6124 32.35 36.4749 32.35Z" fill="#333333"/>
<path d="M36.4749 29.7312H24.8062C24.6687 29.7312 24.5562 29.6187 24.5562 29.4812C24.5562 29.3437 24.6687 29.2312 24.8062 29.2312H36.4749C36.6124 29.2312 36.7249 29.3437 36.7249 29.4812C36.7249 29.6187 36.6124 29.7312 36.4749 29.7312Z" fill="#333333"/>
<path d="M36.4749 27.1124H24.8062C24.6687 27.1124 24.5562 26.9999 24.5562 26.8624C24.5562 26.7249 24.6687 26.6124 24.8062 26.6124H36.4749C36.6124 26.6124 36.7249 26.7249 36.7249 26.8624C36.7249 26.9999 36.6124 27.1124 36.4749 27.1124Z" fill="#333333"/>
<path d="M21.5312 26.8624H11.5249V34.7124H21.5312V26.8624Z" fill="#FDDD8D"/>
<path d="M21.5249 26.8624H11.5249V28.4937H21.5249V26.8624Z" fill="#FEE8B3"/>
<path d="M21.5249 33.0875H11.5249V34.7188H21.5249V33.0875Z" fill="#FDD267"/>
<path d="M21.5249 34.9624H11.5249C11.3874 34.9624 11.2749 34.8499 11.2749 34.7124V26.8624C11.2749 26.7249 11.3874 26.6124 11.5249 26.6124H21.5312C21.6687 26.6124 21.7812 26.7249 21.7812 26.8624V34.7124C21.7749 34.8562 21.6687 34.9624 21.5249 34.9624ZM11.7749 34.4624H21.2812V27.1124H11.7749V34.4624Z" fill="#333333"/>
</g>
<defs>
<clipPath id="clip0_8433_209">
<rect width="32" height="32" fill="white" transform="translate(8 8)"/>
</clipPath>
</defs>
</svg>
