<svg width="48" height="48" viewBox="0 0 48 48" fill="none" xmlns="http://www.w3.org/2000/svg">
<rect width="48" height="48" rx="9" fill="white"/>
<g clip-path="url(#clip0_8411_6)">
<path d="M24.6668 9C16.1948 9 9.3335 15.8613 9.3335 24.3333C9.3335 31.1187 13.7228 36.8493 19.8175 38.88C20.5842 39.0147 20.8708 38.5547 20.8708 38.152C20.8708 37.788 20.8522 36.5813 20.8522 35.296C17.0002 36.0053 16.0042 34.3573 15.6975 33.496C15.5242 33.0547 14.7775 31.6933 14.1242 31.3293C13.5882 31.0413 12.8215 30.332 14.1055 30.3133C15.3135 30.2947 16.1762 31.4253 16.4642 31.8853C17.8442 34.2053 20.0482 33.552 20.9295 33.1493C21.0628 32.1533 21.4655 31.4827 21.9068 31.0987C18.4948 30.716 14.9308 29.3933 14.9308 23.528C14.9308 21.8613 15.5242 20.4813 16.5015 19.408C16.3482 19.024 15.8122 17.452 16.6548 15.344C16.6548 15.344 17.9388 14.9413 20.8722 16.916C22.0988 16.5707 23.4015 16.3987 24.7055 16.3987C26.0082 16.3987 27.3122 16.572 28.5388 16.916C31.4722 14.9227 32.7548 15.344 32.7548 15.344C33.5988 17.452 33.0615 19.024 32.9082 19.408C33.8855 20.4813 34.4802 21.8413 34.4802 23.528C34.4802 29.412 30.8962 30.7147 27.4842 31.0987C28.0402 31.5787 28.5188 32.4987 28.5188 33.936C28.5188 35.9867 28.5002 37.6347 28.5002 38.152C28.5002 38.5547 28.7882 39.0347 29.5535 38.8813C35.6122 36.8493 40.0002 31.0987 40.0002 24.3333C40.0002 15.8613 33.1388 9 24.6668 9Z" fill="black"/>
<g clip-path="url(#clip1_8411_6)">
<path d="M24 40C32.8366 40 40 32.8366 40 24C40 15.1634 32.8366 8 24 8C15.1634 8 8 15.1634 8 24C8 32.8366 15.1634 40 24 40Z" fill="#D72828"/>
<path d="M22.5 33H25.5V30H22.5V33ZM22.5 14V27H25.5V14H22.5Z" fill="#E6E6E6"/>
</g>
</g>
<defs>
<clipPath id="clip0_8411_6">
<rect width="32" height="32" fill="white" transform="translate(8 8)"/>
</clipPath>
<clipPath id="clip1_8411_6">
<rect width="32" height="32" fill="white" transform="translate(8 8)"/>
</clipPath>
</defs>
</svg>
