<svg width="48" height="48" viewBox="0 0 48 48" fill="none" xmlns="http://www.w3.org/2000/svg">
<rect width="48" height="48" rx="9" fill="white"/>
<g clip-path="url(#clip0_8436_2)">
<path fill-rule="evenodd" clip-rule="evenodd" d="M23.5 7C33.1652 7 41 15.0324 41 24.9426C41 32.8684 35.9915 39.5919 29.0422 41.9667C28.155 42.1434 27.84 41.5831 27.84 41.1054C27.84 40.5139 27.861 38.5819 27.861 36.1809C27.861 34.5079 27.301 33.416 26.6728 32.8595C30.57 32.415 34.665 30.8976 34.665 24.0061C34.665 22.0461 33.986 20.4467 32.8625 19.1902C33.0445 18.7369 33.6447 16.9119 32.691 14.4409C32.691 14.4409 31.2245 13.9601 27.8837 16.2806C26.4855 15.8834 24.9875 15.6835 23.5 15.6765C22.0125 15.6835 20.5163 15.8834 19.1198 16.2806C15.7755 13.9601 14.3055 14.4409 14.3055 14.4409C13.3553 16.9119 13.9555 18.7369 14.1358 19.1902C13.0175 20.4467 12.3333 22.0461 12.3333 24.0061C12.3333 30.8801 16.4195 32.4208 20.3063 32.874C19.8058 33.322 19.3525 34.1123 19.195 35.2726C18.1975 35.7311 15.6635 36.5246 14.1025 33.7824C14.1025 33.7824 13.1768 32.0584 11.4198 31.9324C11.4198 31.9324 9.7135 31.9097 11.3007 33.0227C11.3007 33.0227 12.447 33.574 13.2432 35.6477C13.2432 35.6477 14.2705 38.8501 19.139 37.7651C19.1478 39.2649 19.1635 40.6784 19.1635 41.1054C19.1635 41.5796 18.8415 42.1346 17.9682 41.9684C11.0137 39.5971 6 32.8701 6 24.9426C6 15.0324 13.8365 7 23.5 7Z" fill="#1C274C"/>
</g>
<defs>
<clipPath id="clip0_8436_2">
<rect width="35" height="35" fill="white" transform="translate(6 7)"/>
</clipPath>
</defs>
</svg>
