<svg width="40" height="40" viewBox="0 0 40 40" fill="none" xmlns="http://www.w3.org/2000/svg">
<g clip-path="url(#clip0_8434_445)">
<path d="M20 40C31.0457 40 40 31.0457 40 20C40 8.9543 31.0457 0 20 0C8.9543 0 0 8.9543 0 20C0 31.0457 8.9543 40 20 40Z" fill="#EA8953"/>
<path opacity="0.1" d="M39.9999 20C39.9999 18.8329 39.894 17.6908 39.7024 16.5783L31.4586 8.33459H8.54199V10.218L10.2211 11.8971V22.8971H8.54199V24.7805L23.4574 39.6958C32.8545 38.0575 39.9999 29.8658 39.9999 20Z" fill="black"/>
<path d="M24.3159 30.9512L20.4167 27.1608V23.84C20.4167 23.6096 20.2305 23.4233 20.0001 23.4233C19.7697 23.4233 19.5834 23.6096 19.5834 23.84V27.1608L15.6847 30.9512C15.5197 31.1116 15.5163 31.3754 15.6763 31.5404C15.8367 31.7045 16.1001 31.7095 16.2655 31.5483L19.5834 28.3229V31.25C19.5834 31.4804 19.7696 31.6666 20 31.6666C20.2304 31.6666 20.4166 31.4804 20.4166 31.25V28.3229L23.735 31.5487C23.8159 31.6275 23.9209 31.6666 24.0254 31.6666C24.1341 31.6666 24.2425 31.6241 24.3241 31.5404C24.4841 31.3754 24.4804 31.1116 24.3159 30.9512Z" fill="#2F4859"/>
<path d="M31.4581 8.33337H8.5415V10.218H31.4581V8.33337Z" fill="#64798A"/>
<path d="M29.7798 10.2179H10.2202V22.8975H29.7798V10.2179Z" fill="white"/>
<path d="M31.4581 22.8976H8.5415V24.7822H31.4581V22.8976Z" fill="#64798A"/>
<path d="M12.7287 17.3204C12.7408 18.0292 13.1933 18.3213 13.7174 18.3213C14.0924 18.3213 14.3187 18.2559 14.5153 18.1725L14.6045 18.5471C14.4199 18.6305 14.1041 18.7259 13.6461 18.7259C12.759 18.7259 12.229 18.1421 12.229 17.273C12.229 16.4038 12.7411 15.7192 13.5806 15.7192C14.521 15.7192 14.7715 16.5467 14.7715 17.0767C14.7715 17.1838 14.7594 17.2671 14.7536 17.3205L12.7287 17.3204ZM14.2649 16.9459C14.2708 16.6125 14.1278 16.0942 13.5387 16.0942C13.0087 16.0942 12.7766 16.583 12.7349 16.9459H14.2649Z" fill="#64798A"/>
<path d="M15.2251 16.6596V16.3025H18.2972V16.6596H15.2251ZM15.2251 17.8266V17.4691H18.2972V17.8266H15.2251Z" fill="#64798A"/>
<path d="M18.9729 16.5646C18.9729 16.2671 18.9666 16.0225 18.9487 15.7846H19.4075L19.4312 16.2492H19.4491C19.61 15.9755 19.8775 15.7192 20.3541 15.7192C20.7466 15.7192 21.0445 15.9571 21.1695 16.2967H21.1816C21.2708 16.1359 21.3837 16.0113 21.5029 15.9213C21.6754 15.7905 21.8658 15.7192 22.14 15.7192C22.5212 15.7192 23.0866 15.9692 23.0866 16.9696V18.6663H22.575V17.035C22.575 16.4813 22.3725 16.1479 21.9496 16.1479C21.6521 16.1479 21.4196 16.3679 21.3304 16.6246C21.3067 16.6958 21.2888 16.7908 21.2888 16.8862V18.6662H20.7767V16.9396C20.7767 16.4812 20.5742 16.1479 20.1751 16.1479C19.8479 16.1479 19.6097 16.4096 19.5263 16.6721C19.4963 16.7492 19.4847 16.8387 19.4847 16.9279V18.6663H18.9726V16.5646H18.9729Z" fill="#64798A"/>
<path d="M25.9949 18.5592C25.8578 18.6304 25.5541 18.7258 25.167 18.7258C24.2979 18.7258 23.7324 18.1362 23.7324 17.255C23.7324 16.3679 24.3395 15.725 25.2803 15.725C25.5895 15.725 25.8637 15.8025 26.0066 15.8737L25.8874 16.2787C25.7628 16.2075 25.5662 16.1421 25.2803 16.1421C24.6195 16.1421 24.2624 16.6304 24.2624 17.2312C24.2624 17.8983 24.6912 18.3091 25.2624 18.3091C25.5599 18.3091 25.7566 18.2316 25.9053 18.1662L25.9949 18.5592Z" fill="#64798A"/>
<path d="M26.3311 16.6825V16.4954L26.5707 16.2625C27.1465 15.7142 27.4065 15.4229 27.4103 15.0829C27.4103 14.8542 27.2994 14.6421 26.9624 14.6421C26.7578 14.6421 26.5882 14.7462 26.484 14.8329L26.3869 14.6175C26.5432 14.4859 26.7653 14.3888 27.0248 14.3888C27.5107 14.3888 27.7152 14.7217 27.7152 15.0442C27.7152 15.4608 27.4136 15.7971 26.9381 16.255L26.7577 16.4213V16.4284H27.7711V16.6813H26.3311V16.6825Z" fill="#64798A"/>
</g>
<defs>
<clipPath id="clip0_8434_445">
<rect width="40" height="40" fill="white"/>
</clipPath>
</defs>
</svg>
