<svg width="48" height="48" viewBox="0 0 48 48" fill="none" xmlns="http://www.w3.org/2000/svg">
<rect width="48" height="48" rx="9" fill="white"/>
<path fill-rule="evenodd" clip-rule="evenodd" d="M23.5 33.25C28.3325 33.25 32.25 29.3325 32.25 24.5C32.25 19.6675 28.3325 15.75 23.5 15.75C18.6675 15.75 14.75 19.6675 14.75 24.5C14.75 29.3325 18.6675 33.25 23.5 33.25ZM23.5 30.3333C26.7216 30.3333 29.3333 27.7216 29.3333 24.5C29.3333 21.2783 26.7216 18.6667 23.5 18.6667C20.2783 18.6667 17.6667 21.2783 17.6667 24.5C17.6667 27.7216 20.2783 30.3333 23.5 30.3333Z" fill="#F56040"/>
<path d="M32.2503 14.2917C31.4449 14.2917 30.792 14.9447 30.792 15.7501C30.792 16.5555 31.4449 17.2084 32.2503 17.2084C33.0558 17.2084 33.7087 16.5555 33.7087 15.7501C33.7087 14.9447 33.0558 14.2917 32.2503 14.2917Z" fill="#F56040"/>
<path fill-rule="evenodd" clip-rule="evenodd" d="M8.41219 13.236C7.4585 15.1077 7.4585 17.5579 7.4585 22.4584V26.5417C7.4585 31.4421 7.4585 33.8924 8.41219 35.7641C9.25108 37.4105 10.5897 38.7491 12.2361 39.588C14.1078 40.5417 16.558 40.5417 21.4585 40.5417H25.5418C30.4423 40.5417 32.8926 40.5417 34.7642 39.588C36.4106 38.7491 37.7493 37.4105 38.5881 35.7641C39.5418 33.8924 39.5418 31.4421 39.5418 26.5417V22.4584C39.5418 17.5579 39.5418 15.1077 38.5881 13.236C37.7493 11.5895 36.4106 10.251 34.7642 9.41207C32.8926 8.45837 30.4423 8.45837 25.5418 8.45837H21.4585C16.558 8.45837 14.1078 8.45837 12.2361 9.41207C10.5897 10.251 9.25108 11.5895 8.41219 13.236ZM25.5418 11.375H21.4585C18.9601 11.375 17.2618 11.3773 15.949 11.4846C14.6703 11.589 14.0164 11.7784 13.5602 12.0108C12.4626 12.5701 11.5702 13.4625 11.011 14.5601C10.7785 15.0163 10.5892 15.6702 10.4847 16.9489C10.3774 18.2617 10.3752 19.96 10.3752 22.4584V26.5417C10.3752 29.0401 10.3774 30.7384 10.4847 32.0511C10.5892 33.33 10.7785 33.9839 11.011 34.44C11.5702 35.5376 12.4626 36.4299 13.5602 36.9892C14.0164 37.2217 14.6703 37.4111 15.949 37.5155C17.2618 37.6227 18.9601 37.625 21.4585 37.625H25.5418C28.0402 37.625 29.7385 37.6227 31.0513 37.5155C32.3301 37.4111 32.984 37.2217 33.4402 36.9892C34.5377 36.4299 35.4301 35.5376 35.9893 34.44C36.2218 33.9839 36.4112 33.33 36.5156 32.0511C36.6228 30.7384 36.6252 29.0401 36.6252 26.5417V22.4584C36.6252 19.96 36.6228 18.2617 36.5156 16.9489C36.4112 15.6702 36.2218 15.0163 35.9893 14.5601C35.4301 13.4625 34.5377 12.5701 33.4402 12.0108C32.984 11.7784 32.3301 11.589 31.0513 11.4846C29.7385 11.3773 28.0402 11.375 25.5418 11.375Z" fill="#F56040"/>
</svg>
