<svg width="48" height="48" viewBox="0 0 48 48" fill="none" xmlns="http://www.w3.org/2000/svg">
<rect width="48" height="48" rx="9" fill="white"/>
<path fill-rule="evenodd" clip-rule="evenodd" d="M40 40H33.6V28.8016C33.6 25.7296 32.2448 24.0156 29.8144 24.0156C27.1696 24.0156 25.6 25.8016 25.6 28.8016V40H19.2V19.2H25.6V21.5391C25.6 21.5391 27.608 18.0156 32.1328 18.0156C36.6592 18.0156 40 20.7778 40 26.493V40ZM11.9072 15.8734C9.7488 15.8734 8 14.1103 8 11.9359C8 9.76314 9.7488 8 11.9072 8C14.064 8 15.8128 9.76314 15.8128 11.9359C15.8144 14.1103 14.064 15.8734 11.9072 15.8734ZM8 40H16V19.2H8V40Z" fill="#0E76A8"/>
</svg>
