<svg width="48" height="48" viewBox="0 0 48 48" fill="none" xmlns="http://www.w3.org/2000/svg">
<rect width="48" height="48" rx="9" fill="white"/>
<path d="M24.9585 24.5C24.9585 29.3325 21.041 33.25 16.2085 33.25C11.376 33.25 7.4585 29.3325 7.4585 24.5C7.4585 19.6675 11.376 15.75 16.2085 15.75C21.041 15.75 24.9585 19.6675 24.9585 24.5Z" fill="#777737"/>
<path d="M39.5417 24.5C39.5417 28.5271 38.8888 31.7917 38.0833 31.7917C37.2779 31.7917 36.625 28.5271 36.625 24.5C36.625 20.473 37.2779 17.2084 38.0833 17.2084C38.8888 17.2084 39.5417 20.473 39.5417 24.5Z" fill="#777737"/>
<path d="M30.792 33.25C33.2083 33.25 35.167 29.3325 35.167 24.5C35.167 19.6675 33.2083 15.75 30.792 15.75C28.3757 15.75 26.417 19.6675 26.417 24.5C26.417 29.3325 28.3757 33.25 30.792 33.25Z" fill="#777737"/>
</svg>
