<svg width="48" height="48" viewBox="0 0 48 48" fill="none" xmlns="http://www.w3.org/2000/svg">
<g clip-path="url(#clip0_8433_373)">
<path d="M39 0H9C4.02944 0 0 4.02944 0 9V39C0 43.9706 4.02944 48 9 48H39C43.9706 48 48 43.9706 48 39V9C48 4.02944 43.9706 0 39 0Z" fill="white"/>
<path d="M36.9543 11.7611L37.0364 12.0016L37.9243 14.8974C38.0928 15.4471 37.7953 16.0186 37.2507 16.2425L37.0961 16.2947L19.8208 20.9266L37.7921 20.9279C38.4036 20.9279 38.9089 21.3529 38.9889 21.9043L39 22.0576V34.8578C39 37.0608 37.1613 38.862 34.8409 38.9924L34.5712 39H14.4421C12.0868 39 10.1608 37.2803 10.0215 35.1101L10.0134 34.8578L10.013 22.2173L9.1727 19.4743C8.52348 17.3567 9.76008 15.1511 11.9521 14.4277L12.2092 14.3509L31.5584 9.16153C33.8225 8.55432 36.1808 9.7109 36.9543 11.7611ZM15.2838 15.8766L12.875 16.5227C11.8731 16.7914 11.2674 17.7246 11.4481 18.6638L11.4948 18.8515L12.0493 20.6603L12.5245 20.5325L15.2838 15.8766ZM22.9438 13.8224L18.5674 14.996L15.808 19.6519L20.1844 18.4782L22.9438 13.8224ZM30.6053 11.7676L26.2288 12.9414L23.4694 17.5971L27.8444 16.4238L30.6053 11.7676ZM33.5801 11.4158L31.131 15.5425L35.2675 14.4334L34.7143 12.6244C34.5417 12.0614 34.1128 11.6323 33.5801 11.4158Z" fill="#D72828"/>
</g>
<defs>
<clipPath id="clip0_8433_373">
<rect width="48" height="48" fill="white"/>
</clipPath>
</defs>
</svg>
