<svg width="48" height="48" viewBox="0 0 48 48" fill="none" xmlns="http://www.w3.org/2000/svg">
<rect width="48" height="48" rx="9" fill="white"/>
<path d="M19.0002 26.0834C14.6279 26.0834 11.0835 29.6277 11.0835 34C11.0835 38.3724 14.6279 41.9167 19.0002 41.9167C23.3725 41.9167 26.9168 38.3724 26.9168 34C26.9168 29.6277 23.3725 26.0834 19.0002 26.0834Z" fill="#1C274C"/>
<path fill-rule="evenodd" clip-rule="evenodd" d="M25.667 6.08337C26.3573 6.08337 26.917 6.64302 26.917 7.33337C26.917 12.1659 30.8345 16.0834 35.667 16.0834C36.3573 16.0834 36.917 16.643 36.917 17.3334C36.917 18.0237 36.3573 18.5834 35.667 18.5834C29.4538 18.5834 24.417 13.5466 24.417 7.33337C24.417 6.64302 24.9767 6.08337 25.667 6.08337Z" fill="#1C274C"/>
<path opacity="0.5" d="M24.417 28.2265V7.33337C24.417 10.0125 25.3535 12.4729 26.917 14.405V34C26.917 31.7232 25.9558 29.6707 24.417 28.2265Z" fill="#1C274C"/>
</svg>
