<svg width="40" height="40" viewBox="0 0 40 40" fill="none" xmlns="http://www.w3.org/2000/svg">
<g clip-path="url(#clip0_8434_510)">
<path d="M20 40C31.0457 40 40 31.0457 40 20C40 8.9543 31.0457 0 20 0C8.9543 0 0 8.9543 0 20C0 31.0457 8.9543 40 20 40Z" fill="#E05B49"/>
<path opacity="0.1" d="M39.9756 20.9625L27.4298 8.41711C27.4214 8.40875 27.4131 8.40047 27.4048 8.39211L27.4023 8.38961V8.39C27.2314 8.22664 27.0014 8.125 26.7464 8.125H13.2531C12.7281 8.125 12.3027 8.55039 12.3027 9.07539V9.90875V30.0912V30.9246C12.3027 31.1921 12.4144 31.433 12.5923 31.6059V31.6062L20.962 39.9759C31.2414 39.4888 39.4881 31.2421 39.9756 20.9625Z" fill="black"/>
<path d="M26.7464 8.95837H13.2531C12.7281 8.95837 12.3027 9.38376 12.3027 9.90876V30.9246C12.3027 31.4496 12.7281 31.875 13.2531 31.875H26.7465C27.2715 31.875 27.6969 31.4496 27.6969 30.9246V9.90876C27.6969 9.38376 27.2714 8.95837 26.7464 8.95837Z" fill="#2F4859"/>
<path d="M26.7464 8.125H13.2531C12.7281 8.125 12.3027 8.55039 12.3027 9.07539V30.0912C12.3027 30.6162 12.7281 31.0416 13.2531 31.0416H26.7465C27.2715 31.0416 27.6969 30.6162 27.6969 30.0912V9.07539C27.6969 8.55039 27.2714 8.125 26.7464 8.125Z" fill="#64798A"/>
<path d="M13.5527 15.0209V10.8417C13.5527 10.6271 13.7265 10.4534 13.9411 10.4534H26.059C26.2736 10.4534 26.4473 10.6271 26.4473 10.8417V15.0209C26.4473 15.2355 26.2736 15.4092 26.059 15.4092H13.9411C13.7265 15.4092 13.5527 15.2354 13.5527 15.0209Z" fill="#EBF0F3"/>
<path d="M13.5527 15.0208V14.5758H26.4469V15.0208C26.4469 15.2354 26.2731 15.4092 26.0585 15.4092H13.9411C13.7265 15.4091 13.5527 15.2353 13.5527 15.0208Z" fill="#E1E6E9"/>
<path d="M14.9865 19.1474H13.8527C13.6869 19.1474 13.5527 19.0133 13.5527 18.8474V17.7137C13.5527 17.5483 13.6869 17.4137 13.8527 17.4137H14.9865C15.1523 17.4137 15.2865 17.5478 15.2865 17.7137V18.8474C15.2865 19.0133 15.1523 19.1474 14.9865 19.1474Z" fill="#FCD462"/>
<path d="M17.7765 19.1474H16.6428C16.4769 19.1474 16.3428 19.0133 16.3428 18.8474V17.7137C16.3428 17.5483 16.4769 17.4137 16.6428 17.4137H17.7765C17.9424 17.4137 18.0765 17.5478 18.0765 17.7137V18.8474C18.0765 19.0133 17.9424 19.1474 17.7765 19.1474Z" fill="#44C4A1"/>
<path d="M20.5671 19.1474H19.4333C19.2674 19.1474 19.1333 19.0133 19.1333 18.8474V17.7137C19.1333 17.5483 19.2674 17.4137 19.4333 17.4137H20.5671C20.7324 17.4137 20.8671 17.5478 20.8671 17.7137V18.8474C20.8671 19.0133 20.7324 19.1474 20.5671 19.1474Z" fill="#E56353"/>
<path d="M23.3571 19.1474H22.2233C22.058 19.1474 21.9233 19.0133 21.9233 18.8474V17.7137C21.9233 17.5483 22.0575 17.4137 22.2233 17.4137H23.3571C23.523 17.4137 23.6571 17.5478 23.6571 17.7137V18.8474C23.6571 19.0133 23.5229 19.1474 23.3571 19.1474Z" fill="#27A2DB"/>
<path d="M26.1471 19.1474H25.0134C24.8475 19.1474 24.7134 19.0133 24.7134 18.8474V17.7137C24.7134 17.5483 24.8475 17.4137 25.0134 17.4137H26.1471C26.313 17.4137 26.4471 17.5478 26.4471 17.7137V18.8474C26.4467 19.0133 26.3125 19.1474 26.1471 19.1474Z" fill="#E1E6E9"/>
<path d="M14.9865 21.7858H13.8527C13.6869 21.7858 13.5527 21.6516 13.5527 21.4858V20.352C13.5527 20.1861 13.6869 20.052 13.8527 20.052H14.9865C15.1523 20.052 15.2865 20.1861 15.2865 20.352V21.4858C15.2865 21.6511 15.1523 21.7858 14.9865 21.7858Z" fill="#E1E6E9"/>
<path d="M17.7765 21.7858H16.6428C16.4769 21.7858 16.3428 21.6516 16.3428 21.4858V20.352C16.3428 20.1861 16.4769 20.052 16.6428 20.052H17.7765C17.9424 20.052 18.0765 20.1861 18.0765 20.352V21.4858C18.0765 21.6511 17.9424 21.7858 17.7765 21.7858Z" fill="#E1E6E9"/>
<path d="M20.5671 21.7858H19.4333C19.2674 21.7858 19.1333 21.6516 19.1333 21.4858V20.352C19.1333 20.1861 19.2674 20.052 19.4333 20.052H20.5671C20.7324 20.052 20.8671 20.1861 20.8671 20.352V21.4858C20.8671 21.6511 20.7324 21.7858 20.5671 21.7858Z" fill="#E1E6E9"/>
<path d="M23.3571 21.7858H22.2233C22.058 21.7858 21.9233 21.6516 21.9233 21.4858V20.352C21.9233 20.1861 22.0575 20.052 22.2233 20.052H23.3571C23.523 20.052 23.6571 20.1861 23.6571 20.352V21.4858C23.6571 21.6511 23.5229 21.7858 23.3571 21.7858Z" fill="#E1E6E9"/>
<path d="M26.1471 21.7858H25.0134C24.8475 21.7858 24.7134 21.6516 24.7134 21.4858V20.352C24.7134 20.1861 24.8475 20.052 25.0134 20.052H26.1471C26.313 20.052 26.4471 20.1861 26.4471 20.352V21.4858C26.4467 21.6511 26.3125 21.7858 26.1471 21.7858Z" fill="#E1E6E9"/>
<path d="M14.9865 24.4241H13.8527C13.6869 24.4241 13.5527 24.2899 13.5527 24.1241V22.9903C13.5527 22.8244 13.6869 22.6903 13.8527 22.6903H14.9865C15.1523 22.6903 15.2865 22.8244 15.2865 22.9903V24.1241C15.2865 24.2895 15.1523 24.4241 14.9865 24.4241Z" fill="#E1E6E9"/>
<path d="M17.7765 24.4241H16.6428C16.4769 24.4241 16.3428 24.2899 16.3428 24.1241V22.9903C16.3428 22.8244 16.4769 22.6903 16.6428 22.6903H17.7765C17.9424 22.6903 18.0765 22.8244 18.0765 22.9903V24.1241C18.0765 24.2895 17.9424 24.4241 17.7765 24.4241Z" fill="#E1E6E9"/>
<path d="M20.5671 24.4241H19.4333C19.2674 24.4241 19.1333 24.2899 19.1333 24.1241V22.9903C19.1333 22.8244 19.2674 22.6903 19.4333 22.6903H20.5671C20.7324 22.6903 20.8671 22.8244 20.8671 22.9903V24.1241C20.8671 24.2895 20.7324 24.4241 20.5671 24.4241Z" fill="#E1E6E9"/>
<path d="M23.3571 24.4241H22.2233C22.058 24.4241 21.9233 24.2899 21.9233 24.1241V22.9903C21.9233 22.8244 22.0575 22.6903 22.2233 22.6903H23.3571C23.523 22.6903 23.6571 22.8244 23.6571 22.9903V24.1241C23.6571 24.2895 23.5229 24.4241 23.3571 24.4241Z" fill="#E1E6E9"/>
<path d="M26.1471 24.4241H25.0134C24.8475 24.4241 24.7134 24.2899 24.7134 24.1241V22.9903C24.7134 22.8244 24.8475 22.6903 25.0134 22.6903H26.1471C26.313 22.6903 26.4471 22.8244 26.4471 22.9903V24.1241C26.4467 24.2895 26.3125 24.4241 26.1471 24.4241Z" fill="#E1E6E9"/>
<path d="M14.9865 27.062H13.8527C13.6869 27.062 13.5527 26.9279 13.5527 26.762V25.6282C13.5527 25.4629 13.6869 25.3282 13.8527 25.3282H14.9865C15.1523 25.3282 15.2865 25.4624 15.2865 25.6282V26.762C15.2865 26.9278 15.1523 27.062 14.9865 27.062Z" fill="#E1E6E9"/>
<path d="M17.7765 27.062H16.6428C16.4769 27.062 16.3428 26.9279 16.3428 26.762V25.6282C16.3428 25.4629 16.4769 25.3282 16.6428 25.3282H17.7765C17.9424 25.3282 18.0765 25.4624 18.0765 25.6282V26.762C18.0765 26.9278 17.9424 27.062 17.7765 27.062Z" fill="#E1E6E9"/>
<path d="M20.5671 27.062H19.4333C19.2674 27.062 19.1333 26.9279 19.1333 26.762V25.6282C19.1333 25.4629 19.2674 25.3282 19.4333 25.3282H20.5671C20.7324 25.3282 20.8671 25.4624 20.8671 25.6282V26.762C20.8671 26.9278 20.7324 27.062 20.5671 27.062Z" fill="#E1E6E9"/>
<path d="M23.3571 27.062H22.2233C22.058 27.062 21.9233 26.9279 21.9233 26.762V25.6282C21.9233 25.4629 22.0575 25.3282 22.2233 25.3282H23.3571C23.523 25.3282 23.6571 25.4624 23.6571 25.6282V26.762C23.6571 26.9278 23.5229 27.062 23.3571 27.062Z" fill="#E1E6E9"/>
<path d="M14.9865 29.7003H13.8527C13.6869 29.7003 13.5527 29.5662 13.5527 29.4003V28.2666C13.5527 28.1007 13.6869 27.9666 13.8527 27.9666H14.9865C15.1523 27.9666 15.2865 28.1007 15.2865 28.2666V29.4003C15.2865 29.5662 15.1523 29.7003 14.9865 29.7003Z" fill="#E1E6E9"/>
<path d="M17.7765 29.7003H16.6428C16.4769 29.7003 16.3428 29.5662 16.3428 29.4003V28.2666C16.3428 28.1007 16.4769 27.9666 16.6428 27.9666H17.7765C17.9424 27.9666 18.0765 28.1007 18.0765 28.2666V29.4003C18.0765 29.5662 17.9424 29.7003 17.7765 29.7003Z" fill="#E1E6E9"/>
<path d="M20.5671 29.7003H19.4333C19.2674 29.7003 19.1333 29.5662 19.1333 29.4003V28.2666C19.1333 28.1007 19.2674 27.9666 19.4333 27.9666H20.5671C20.7324 27.9666 20.8671 28.1007 20.8671 28.2666V29.4003C20.8671 29.5662 20.7324 29.7003 20.5671 29.7003Z" fill="#E1E6E9"/>
<path d="M23.3571 29.7003H22.2233C22.058 29.7003 21.9233 29.5662 21.9233 29.4003V28.2666C21.9233 28.1007 22.0575 27.9666 22.2233 27.9666H23.3571C23.523 27.9666 23.6571 28.1007 23.6571 28.2666V29.4003C23.6571 29.5662 23.5229 29.7003 23.3571 29.7003Z" fill="#E1E6E9"/>
<path d="M26.1476 29.7004H25.0139C24.848 29.7004 24.7139 29.5662 24.7139 29.4004V25.6282C24.7139 25.4629 24.848 25.3282 25.0139 25.3282H26.1476C26.3135 25.3282 26.4476 25.4624 26.4476 25.6282V29.4004C26.4472 29.5662 26.313 29.7004 26.1476 29.7004Z" fill="#E56353"/>
</g>
<defs>
<clipPath id="clip0_8434_510">
<rect width="40" height="40" fill="white"/>
</clipPath>
</defs>
</svg>
