<svg width="48" height="48" viewBox="0 0 48 48" fill="none" xmlns="http://www.w3.org/2000/svg">
<g clip-path="url(#clip0_8434_460)">
<path d="M39 0H9C4.02944 0 0 4.02944 0 9V39C0 43.9706 4.02944 48 9 48H39C43.9706 48 48 43.9706 48 39V9C48 4.02944 43.9706 0 39 0Z" fill="white"/>
<g clip-path="url(#clip1_8434_460)">
<path d="M24 44C35.0457 44 44 35.0457 44 24C44 12.9543 35.0457 4 24 4C12.9543 4 4 12.9543 4 24C4 35.0457 12.9543 44 24 44Z" fill="#E05B49"/>
<path opacity="0.1" d="M43.9756 24.9625L31.4298 12.4171C31.4214 12.4087 31.4131 12.4005 31.4048 12.3921L31.4023 12.3896V12.39C31.2314 12.2266 31.0014 12.125 30.7464 12.125H17.2531C16.7281 12.125 16.3027 12.5504 16.3027 13.0754V13.9088V34.0912V34.9246C16.3027 35.1921 16.4144 35.433 16.5923 35.6059V35.6062L24.962 43.9759C35.2414 43.4888 43.4881 35.2421 43.9756 24.9625Z" fill="black"/>
<path d="M30.7464 12.9584H17.2531C16.7281 12.9584 16.3027 13.3838 16.3027 13.9088V34.9246C16.3027 35.4496 16.7281 35.875 17.2531 35.875H30.7465C31.2715 35.875 31.6969 35.4496 31.6969 34.9246V13.9088C31.6969 13.3838 31.2714 12.9584 30.7464 12.9584Z" fill="#2F4859"/>
<path d="M30.7464 12.125H17.2531C16.7281 12.125 16.3027 12.5504 16.3027 13.0754V34.0912C16.3027 34.6162 16.7281 35.0416 17.2531 35.0416H30.7465C31.2715 35.0416 31.6969 34.6162 31.6969 34.0912V13.0754C31.6969 12.5504 31.2714 12.125 30.7464 12.125Z" fill="#64798A"/>
<path d="M17.5527 19.0209V14.8417C17.5527 14.6271 17.7265 14.4534 17.9411 14.4534H30.059C30.2736 14.4534 30.4473 14.6271 30.4473 14.8417V19.0209C30.4473 19.2355 30.2736 19.4092 30.059 19.4092H17.9411C17.7265 19.4092 17.5527 19.2354 17.5527 19.0209Z" fill="#EBF0F3"/>
<path d="M17.5527 19.0208V18.5758H30.4469V19.0208C30.4469 19.2354 30.2731 19.4092 30.0585 19.4092H17.9411C17.7265 19.4091 17.5527 19.2353 17.5527 19.0208Z" fill="#E1E6E9"/>
<path d="M18.9865 23.1474H17.8527C17.6869 23.1474 17.5527 23.0133 17.5527 22.8474V21.7137C17.5527 21.5483 17.6869 21.4137 17.8527 21.4137H18.9865C19.1523 21.4137 19.2865 21.5478 19.2865 21.7137V22.8474C19.2865 23.0133 19.1523 23.1474 18.9865 23.1474Z" fill="#FCD462"/>
<path d="M21.7765 23.1474H20.6428C20.4769 23.1474 20.3428 23.0133 20.3428 22.8474V21.7137C20.3428 21.5483 20.4769 21.4137 20.6428 21.4137H21.7765C21.9424 21.4137 22.0765 21.5478 22.0765 21.7137V22.8474C22.0765 23.0133 21.9424 23.1474 21.7765 23.1474Z" fill="#44C4A1"/>
<path d="M24.5671 23.1474H23.4333C23.2674 23.1474 23.1333 23.0133 23.1333 22.8474V21.7137C23.1333 21.5483 23.2674 21.4137 23.4333 21.4137H24.5671C24.7324 21.4137 24.8671 21.5478 24.8671 21.7137V22.8474C24.8671 23.0133 24.7324 23.1474 24.5671 23.1474Z" fill="#E56353"/>
<path d="M27.3571 23.1474H26.2233C26.058 23.1474 25.9233 23.0133 25.9233 22.8474V21.7137C25.9233 21.5483 26.0575 21.4137 26.2233 21.4137H27.3571C27.523 21.4137 27.6571 21.5478 27.6571 21.7137V22.8474C27.6571 23.0133 27.5229 23.1474 27.3571 23.1474Z" fill="#27A2DB"/>
<path d="M30.1471 23.1474H29.0134C28.8475 23.1474 28.7134 23.0133 28.7134 22.8474V21.7137C28.7134 21.5483 28.8475 21.4137 29.0134 21.4137H30.1471C30.313 21.4137 30.4471 21.5478 30.4471 21.7137V22.8474C30.4467 23.0133 30.3125 23.1474 30.1471 23.1474Z" fill="#E1E6E9"/>
<path d="M18.9865 25.7858H17.8527C17.6869 25.7858 17.5527 25.6516 17.5527 25.4858V24.352C17.5527 24.1861 17.6869 24.052 17.8527 24.052H18.9865C19.1523 24.052 19.2865 24.1861 19.2865 24.352V25.4858C19.2865 25.6511 19.1523 25.7858 18.9865 25.7858Z" fill="#E1E6E9"/>
<path d="M21.7765 25.7858H20.6428C20.4769 25.7858 20.3428 25.6516 20.3428 25.4858V24.352C20.3428 24.1861 20.4769 24.052 20.6428 24.052H21.7765C21.9424 24.052 22.0765 24.1861 22.0765 24.352V25.4858C22.0765 25.6511 21.9424 25.7858 21.7765 25.7858Z" fill="#E1E6E9"/>
<path d="M24.5671 25.7858H23.4333C23.2674 25.7858 23.1333 25.6516 23.1333 25.4858V24.352C23.1333 24.1861 23.2674 24.052 23.4333 24.052H24.5671C24.7324 24.052 24.8671 24.1861 24.8671 24.352V25.4858C24.8671 25.6511 24.7324 25.7858 24.5671 25.7858Z" fill="#E1E6E9"/>
<path d="M27.3571 25.7858H26.2233C26.058 25.7858 25.9233 25.6516 25.9233 25.4858V24.352C25.9233 24.1861 26.0575 24.052 26.2233 24.052H27.3571C27.523 24.052 27.6571 24.1861 27.6571 24.352V25.4858C27.6571 25.6511 27.5229 25.7858 27.3571 25.7858Z" fill="#E1E6E9"/>
<path d="M30.1471 25.7858H29.0134C28.8475 25.7858 28.7134 25.6516 28.7134 25.4858V24.352C28.7134 24.1861 28.8475 24.052 29.0134 24.052H30.1471C30.313 24.052 30.4471 24.1861 30.4471 24.352V25.4858C30.4467 25.6511 30.3125 25.7858 30.1471 25.7858Z" fill="#E1E6E9"/>
<path d="M18.9865 28.4241H17.8527C17.6869 28.4241 17.5527 28.2899 17.5527 28.1241V26.9903C17.5527 26.8244 17.6869 26.6903 17.8527 26.6903H18.9865C19.1523 26.6903 19.2865 26.8244 19.2865 26.9903V28.1241C19.2865 28.2895 19.1523 28.4241 18.9865 28.4241Z" fill="#E1E6E9"/>
<path d="M21.7765 28.4241H20.6428C20.4769 28.4241 20.3428 28.2899 20.3428 28.1241V26.9903C20.3428 26.8244 20.4769 26.6903 20.6428 26.6903H21.7765C21.9424 26.6903 22.0765 26.8244 22.0765 26.9903V28.1241C22.0765 28.2895 21.9424 28.4241 21.7765 28.4241Z" fill="#E1E6E9"/>
<path d="M24.5671 28.4241H23.4333C23.2674 28.4241 23.1333 28.2899 23.1333 28.1241V26.9903C23.1333 26.8244 23.2674 26.6903 23.4333 26.6903H24.5671C24.7324 26.6903 24.8671 26.8244 24.8671 26.9903V28.1241C24.8671 28.2895 24.7324 28.4241 24.5671 28.4241Z" fill="#E1E6E9"/>
<path d="M27.3571 28.4241H26.2233C26.058 28.4241 25.9233 28.2899 25.9233 28.1241V26.9903C25.9233 26.8244 26.0575 26.6903 26.2233 26.6903H27.3571C27.523 26.6903 27.6571 26.8244 27.6571 26.9903V28.1241C27.6571 28.2895 27.5229 28.4241 27.3571 28.4241Z" fill="#E1E6E9"/>
<path d="M30.1471 28.4241H29.0134C28.8475 28.4241 28.7134 28.2899 28.7134 28.1241V26.9903C28.7134 26.8244 28.8475 26.6903 29.0134 26.6903H30.1471C30.313 26.6903 30.4471 26.8244 30.4471 26.9903V28.1241C30.4467 28.2895 30.3125 28.4241 30.1471 28.4241Z" fill="#E1E6E9"/>
<path d="M18.9865 31.062H17.8527C17.6869 31.062 17.5527 30.9279 17.5527 30.762V29.6282C17.5527 29.4629 17.6869 29.3282 17.8527 29.3282H18.9865C19.1523 29.3282 19.2865 29.4624 19.2865 29.6282V30.762C19.2865 30.9278 19.1523 31.062 18.9865 31.062Z" fill="#E1E6E9"/>
<path d="M21.7765 31.062H20.6428C20.4769 31.062 20.3428 30.9279 20.3428 30.762V29.6282C20.3428 29.4629 20.4769 29.3282 20.6428 29.3282H21.7765C21.9424 29.3282 22.0765 29.4624 22.0765 29.6282V30.762C22.0765 30.9278 21.9424 31.062 21.7765 31.062Z" fill="#E1E6E9"/>
<path d="M24.5671 31.062H23.4333C23.2674 31.062 23.1333 30.9279 23.1333 30.762V29.6282C23.1333 29.4629 23.2674 29.3282 23.4333 29.3282H24.5671C24.7324 29.3282 24.8671 29.4624 24.8671 29.6282V30.762C24.8671 30.9278 24.7324 31.062 24.5671 31.062Z" fill="#E1E6E9"/>
<path d="M27.3571 31.062H26.2233C26.058 31.062 25.9233 30.9279 25.9233 30.762V29.6282C25.9233 29.4629 26.0575 29.3282 26.2233 29.3282H27.3571C27.523 29.3282 27.6571 29.4624 27.6571 29.6282V30.762C27.6571 30.9278 27.5229 31.062 27.3571 31.062Z" fill="#E1E6E9"/>
<path d="M18.9865 33.7003H17.8527C17.6869 33.7003 17.5527 33.5662 17.5527 33.4003V32.2666C17.5527 32.1007 17.6869 31.9666 17.8527 31.9666H18.9865C19.1523 31.9666 19.2865 32.1007 19.2865 32.2666V33.4003C19.2865 33.5662 19.1523 33.7003 18.9865 33.7003Z" fill="#E1E6E9"/>
<path d="M21.7765 33.7003H20.6428C20.4769 33.7003 20.3428 33.5662 20.3428 33.4003V32.2666C20.3428 32.1007 20.4769 31.9666 20.6428 31.9666H21.7765C21.9424 31.9666 22.0765 32.1007 22.0765 32.2666V33.4003C22.0765 33.5662 21.9424 33.7003 21.7765 33.7003Z" fill="#E1E6E9"/>
<path d="M24.5671 33.7003H23.4333C23.2674 33.7003 23.1333 33.5662 23.1333 33.4003V32.2666C23.1333 32.1007 23.2674 31.9666 23.4333 31.9666H24.5671C24.7324 31.9666 24.8671 32.1007 24.8671 32.2666V33.4003C24.8671 33.5662 24.7324 33.7003 24.5671 33.7003Z" fill="#E1E6E9"/>
<path d="M27.3571 33.7003H26.2233C26.058 33.7003 25.9233 33.5662 25.9233 33.4003V32.2666C25.9233 32.1007 26.0575 31.9666 26.2233 31.9666H27.3571C27.523 31.9666 27.6571 32.1007 27.6571 32.2666V33.4003C27.6571 33.5662 27.5229 33.7003 27.3571 33.7003Z" fill="#E1E6E9"/>
<path d="M30.1476 33.7004H29.0139C28.848 33.7004 28.7139 33.5662 28.7139 33.4004V29.6282C28.7139 29.4629 28.848 29.3282 29.0139 29.3282H30.1476C30.3135 29.3282 30.4476 29.4624 30.4476 29.6282V33.4004C30.4472 33.5662 30.313 33.7004 30.1476 33.7004Z" fill="#E56353"/>
</g>
</g>
<defs>
<clipPath id="clip0_8434_460">
<rect width="48" height="48" fill="white"/>
</clipPath>
<clipPath id="clip1_8434_460">
<rect width="40" height="40" fill="white" transform="translate(4 4)"/>
</clipPath>
</defs>
</svg>
