<svg width="48" height="48" viewBox="0 0 48 48" fill="none" xmlns="http://www.w3.org/2000/svg">
<rect width="48" height="48" rx="9" fill="white"/>
<g clip-path="url(#clip0_8433_2)">
<path d="M38.1418 38.1422C30.3321 45.9519 17.667 45.9519 9.8573 38.1422C2.04757 30.3325 2.04757 17.6674 9.8573 9.85766C17.667 2.04793 30.3321 2.04793 38.1418 9.85766C44.312 16.0278 45.6031 25.2157 42.0388 32.6532C41.2784 34.2453 40.2883 35.7581 39.0765 37.1442C38.7834 37.4848 38.4666 37.8174 38.1418 38.1422Z" fill="#FD8469"/>
<path d="M42.2606 14.3725L35.9558 20.6773C35.0132 21.6198 33.4766 21.6198 32.5341 20.6773L31.1321 19.2833C30.1896 18.3407 30.1896 16.8041 31.1321 15.8615C31.7103 15.2833 31.7103 14.3408 31.1321 13.7626L29.0253 11.6557C28.447 11.0775 27.5045 11.0775 26.9263 11.6557L24.6214 13.9606L23.9561 13.2953L26.261 10.9904C27.2035 10.0478 28.7401 10.0478 29.6827 10.9904L31.7895 13.0972C32.7321 14.0398 32.7321 15.5764 31.7895 16.519C31.2113 17.0972 31.2113 18.0397 31.7895 18.6179L33.1836 20.0119C33.7618 20.5902 34.7043 20.5902 35.2825 20.0119L41.7854 13.5091C41.9596 13.7943 42.118 14.0794 42.2606 14.3725Z" fill="white"/>
<path d="M24.5577 15.521L22.4033 13.3587L24.13 12.3528L25.5636 13.7943L24.5577 15.521Z" fill="#2B3B4E"/>
<path d="M38.4509 28.6138L19.3939 9.54885C18.8553 9.01025 17.9761 9.01025 17.4375 9.54885L7.36245 19.6318C6.82385 20.1704 6.82385 21.0496 7.36245 21.5882L26.4274 40.6531C26.966 41.1917 27.8452 41.1917 28.3838 40.6531L38.4588 30.5781C38.9974 30.0316 38.9974 29.1524 38.4509 28.6138Z" fill="#324A5E"/>
<path d="M16.8036 12.5198L21.2393 16.9554L22.8242 15.3705L18.3886 10.9348L16.8036 12.5198Z" fill="#ACB3BA"/>
<path d="M22.5029 18.2192L24.0879 19.8042L25.6729 18.2192L24.0879 16.6342L22.5029 18.2192Z" fill="#ACB3BA"/>
<path d="M25.354 21.0708L26.939 22.6558L28.524 21.0708L26.939 19.4858L25.354 21.0708Z" fill="#ACB3BA"/>
<path d="M28.205 23.9223L29.79 25.5073L31.375 23.9223L29.79 22.3373L28.205 23.9223Z" fill="#ACB3BA"/>
<path d="M31.0556 26.774L32.6406 28.359L34.2256 26.774L32.6406 25.189L31.0556 26.774Z" fill="#ACB3BA"/>
<path d="M33.9072 29.6256L35.4922 31.2106L37.0772 29.6256L35.4922 28.0406L33.9072 29.6256Z" fill="#ACB3BA"/>
<path d="M14.1103 15.2069L15.6953 16.7919L17.2803 15.2069L15.6953 13.6219L14.1103 15.2069Z" fill="#ACB3BA"/>
<path d="M16.9609 18.0584L18.5459 19.6434L20.1309 18.0584L18.5459 16.4735L16.9609 18.0584Z" fill="#ACB3BA"/>
<path d="M19.8178 20.9044L21.4028 22.4894L22.9878 20.9044L21.4028 19.3194L19.8178 20.9044Z" fill="#ACB3BA"/>
<path d="M22.6684 23.756L24.2534 25.3409L25.8384 23.756L24.2534 22.171L22.6684 23.756Z" fill="#ACB3BA"/>
<path d="M25.52 26.6075L27.105 28.1925L28.69 26.6075L27.105 25.0225L25.52 26.6075Z" fill="#ACB3BA"/>
<path d="M28.3706 29.4591L29.9556 31.0441L31.5406 29.4591L29.9556 27.8741L28.3706 29.4591Z" fill="#ACB3BA"/>
<path d="M31.2221 32.3106L32.8071 33.8956L34.3921 32.3106L32.8071 30.7257L31.2221 32.3106Z" fill="#ACB3BA"/>
<path d="M11.4248 17.8925L13.0098 19.4775L14.5948 17.8925L13.0098 16.3076L11.4248 17.8925Z" fill="#ACB3BA"/>
<path d="M14.2763 20.7442L15.8613 22.3292L17.4463 20.7442L15.8613 19.1592L14.2763 20.7442Z" fill="#ACB3BA"/>
<path d="M17.1269 23.5958L18.7119 25.1808L20.2969 23.5958L18.7119 22.0108L17.1269 23.5958Z" fill="#ACB3BA"/>
<path d="M19.9839 26.4419L21.5688 28.0269L23.1538 26.4419L21.5688 24.8569L19.9839 26.4419Z" fill="#ACB3BA"/>
<path d="M22.8324 29.2906L27.2681 33.7263L28.8531 32.1413L24.4174 27.7057L22.8324 29.2906Z" fill="#ACB3BA"/>
<path d="M28.5376 34.9964L30.1226 36.5814L31.7075 34.9964L30.1226 33.4114L28.5376 34.9964Z" fill="#ACB3BA"/>
<path d="M8.73972 20.5782L10.3247 22.1632L11.9097 20.5782L10.3247 18.9932L8.73972 20.5782Z" fill="#ACB3BA"/>
<path d="M11.5885 23.4282L21.7256 33.5653L23.3106 31.9803L13.1735 21.8432L11.5885 23.4282Z" fill="#ACB3BA"/>
<path d="M23.0009 34.83L24.5859 36.415L26.1709 34.8301L24.5859 33.2451L23.0009 34.83Z" fill="#ACB3BA"/>
<path d="M25.852 37.6816L27.437 39.2666L29.022 37.6816L27.437 36.0966L25.852 37.6816Z" fill="#ACB3BA"/>
</g>
<defs>
<clipPath id="clip0_8433_2">
<rect width="40" height="40" fill="white" transform="translate(4 4)"/>
</clipPath>
</defs>
</svg>
